<svg width="65" height="65" viewBox="0 0 65 65" fill="none" xmlns="http://www.w3.org/2000/svg">
<path fill-rule="evenodd" clipRule="evenodd" d="M51.4585 51.4584L25.7297 25.7278L51.4585 51.4584ZM39.5374 26.6965C35.9919 29.3557 35.2734 34.3858 37.9325 37.9315C38.2747 38.3877 38.6642 38.8058 39.0941 39.1787L39.5374 39.5364C43.0828 36.8772 43.8013 31.8471 41.1422 28.3014C40.8 27.8452 40.4106 27.4272 39.9806 27.0542L39.5374 26.6965ZM33.1178 20.2765C29.5724 22.9358 28.8538 27.9658 31.513 31.5115C31.8551 31.9677 32.2446 32.3858 32.6746 32.7588L33.1178 33.1165C36.6633 30.4572 37.3818 25.4271 34.7227 21.8814C34.3805 21.4252 33.991 21.0072 33.561 20.6342L33.1178 20.2765ZM26.6983 13.8565C23.1528 16.5158 22.4343 21.5459 25.0934 25.0915C25.4356 25.5478 25.8251 25.9658 26.2551 26.3388L26.6983 26.6965C30.2437 24.0372 30.9622 19.0071 28.3031 15.4615C27.961 15.0052 27.5715 14.5872 27.1415 14.2142L26.6983 13.8565ZM13.8592 26.6965C16.5182 30.2421 21.5479 30.9607 25.0933 28.3015C25.5496 27.9593 25.9676 27.5698 26.3406 27.1398L26.6983 26.6965C24.0392 23.1509 19.0095 22.4323 15.4641 25.0915C15.0079 25.4336 14.5899 25.8232 14.2169 26.2532L13.8592 26.6965ZM20.2787 33.1165C22.9378 36.6621 27.9675 37.3807 31.5129 34.7215C31.9691 34.3793 32.3871 33.9898 32.7601 33.5597L33.1178 33.1165C30.4588 29.5708 25.4291 28.8522 21.8837 31.5114C21.4274 31.8536 21.0094 32.2432 20.6364 32.6732L20.2787 33.1165ZM26.6983 39.5364C29.3573 43.0821 34.387 43.8007 37.9324 41.1415C38.3887 40.7993 38.8067 40.4097 39.1797 39.9797L39.5374 39.5364C36.8783 35.9908 31.8486 35.2722 28.3032 37.9314C27.847 38.2736 27.4289 38.6631 27.056 39.0932L26.6983 39.5364ZM46.1089 33.2684C42.5634 35.9277 41.8449 40.9578 44.504 44.5034C44.8462 44.9597 45.2357 45.3777 45.6657 45.7507L46.1089 46.1084C49.6543 43.4491 50.3728 38.419 47.7137 34.8734C47.3716 34.4171 46.9821 33.9991 46.5521 33.6261L46.1089 33.2684ZM33.2698 46.1084C35.9288 49.654 40.9585 50.3726 44.504 47.7134C44.9602 47.3712 45.3782 46.9817 45.7512 46.5516L46.1089 46.1084C43.4498 42.5627 38.4201 41.8441 34.8747 44.5033C34.4185 44.8455 34.0005 45.2351 33.6275 45.6651L33.2698 46.1084ZM13.6235 13.6223C12.9968 18.0099 16.0452 22.0748 20.4325 22.7016C20.997 22.7822 21.568 22.8024 22.1358 22.7621L22.7021 22.7015C23.3289 18.314 20.2804 14.2491 15.8932 13.6223C15.1404 13.5148 14.3762 13.5148 13.6235 13.6223Z" stroke="#fff" stroke-width="2" stroke-linecap="round"/>
<circle cx="32.5" cy="32.5" r="31.5" stroke="#fff" stroke-width="2"/>
<line x1="9.75041" y1="54.2927" x2="54.6769" y2="9.36624" stroke="#fff" stroke-width="2"/>
</svg>
