<svg width="65" height="65" viewBox="0 0 65 65" fill="none" xmlns="http://www.w3.org/2000/svg">
<path d="M26.4813 10.8333H38.5184M22.4069 28.9167L24.6428 25.3658C26.6035 22.2519 27.8638 18.7489 28.3363 15.0995L28.8887 10.8333H36.1109L36.6104 14.8289C37.0743 18.5403 38.3416 22.106 40.3239 25.2778L42.6013 28.9216C43.0796 29.6868 43.3332 30.571 43.3332 31.4734V49.3518C43.3332 52.011 41.1775 54.1666 38.5184 54.1666H26.4813C23.8222 54.1666 21.6665 52.011 21.6665 49.3518V31.4821C21.6665 30.5743 21.9232 29.6849 22.4069 28.9167ZM21.6665 37.3148L23.1791 37.819C26.755 39.0109 30.6881 38.3727 33.7035 36.1111L34.2119 35.7299C36.7045 33.8603 39.9927 33.4725 42.8362 34.6781L43.3332 34.9074V49.3518C43.3332 52.011 41.1775 54.1666 38.5184 54.1666H26.4813C23.8222 54.1666 21.6665 52.011 21.6665 49.3518V37.3148Z" stroke="#828282" stroke-width="2" stroke-linecap="round"/>
<circle cx="32.5" cy="32.5" r="31.5" stroke="#828282" stroke-width="2"/>
<line x1="9.7509" y1="54.2927" x2="54.6774" y2="9.36624" stroke="#828282" stroke-width="2"/>
</svg>
