<svg width="65" height="65" viewBox="0 0 65 65" fill="none" xmlns="http://www.w3.org/2000/svg">
<path fill-rule="evenodd" clipRule="evenodd" d="M24.9168 13.5417C29.6577 13.5417 33.8515 18.8587 36.4037 24.6946C38.2804 21.8131 40.6969 19.6753 43.3335 19.6753C49.3166 19.6753 54.1668 30.6841 54.1668 36.4032C54.1668 42.1223 49.3166 46.7586 43.3335 46.7586C40.4023 46.7586 37.7431 45.6459 35.7928 43.8382C33.2134 46.837 29.2988 48.75 24.9168 48.75C17.1388 48.75 10.8335 42.7229 10.8335 35.288C10.8335 33.3955 11.242 31.0574 11.9794 28.6233L12.3153 27.5752C14.6267 20.7376 19.4015 13.5417 24.9168 13.5417ZM24.9168 48.75C32.6948 48.75 39.0002 42.7229 39.0002 35.288C39.0002 33.3955 38.5916 31.0574 37.8542 28.6233L37.5183 27.5752C35.207 20.7376 30.4321 13.5417 24.9168 13.5417C19.4015 13.5417 14.6267 20.7376 12.3153 27.5752L11.9794 28.6233C11.242 31.0574 10.8335 33.3955 10.8335 35.288C10.8335 42.7229 17.1388 48.75 24.9168 48.75Z" stroke="#828282" stroke-width="2" stroke-linecap="round"/>
<circle cx="32.5" cy="32.5" r="31.5" stroke="#828282" stroke-width="2"/>
<line x1="9.7509" y1="54.2927" x2="54.6774" y2="9.36624" stroke="#828282" stroke-width="2"/>
</svg>
