<?xml version="1.0" encoding="UTF-8"?>
<svg xmlns="http://www.w3.org/2000/svg" xmlns:xlink="http://www.w3.org/1999/xlink" width="50px" height="50px" viewBox="0 0 50 50" version="1.1">
<g id="surface1">
<path style="fill:none;stroke-width:1;stroke-linecap:butt;stroke-linejoin:miter;stroke:rgb(50.980392%,50.980392%,50.980392%);stroke-opacity:1;stroke-miterlimit:4;" d="M 27.499062 14 C 27.499062 21.455 21.455 27.499062 14 27.499062 C 6.545 27.499062 0.500937 21.455 0.500937 14 C 0.500937 6.545 6.545 0.500937 14 0.500937 C 21.455 0.500937 27.499062 6.545 27.499062 14 Z M 27.499062 14 " transform="matrix(1.785714,0,0,1.785714,0,0)"/>
<path style=" stroke:none;fill-rule:nonzero;fill:rgb(50.980392%,50.980392%,50.980392%);fill-opacity:1;" d="M 31.933594 33.917969 L 29.015625 33.917969 L 29.015625 25.863281 L 20.785156 25.863281 L 20.785156 33.917969 L 17.855469 33.917969 L 17.855469 16.070312 L 20.785156 16.070312 L 20.785156 23.371094 L 29.015625 23.371094 L 29.015625 16.070312 L 31.933594 16.070312 Z M 31.933594 33.917969 "/>
</g>
</svg>
