<svg width="65" height="65" viewBox="0 0 65 65" fill="none" xmlns="http://www.w3.org/2000/svg">
<g clip-path="url(#clip0_771_1822)">
<path fill-rule="evenodd" clipRule="evenodd" d="M32.5001 56.875C43.3334 53.2639 48.7501 47.2365 48.7501 38.7929V32.5H16.2501V38.7929C16.2501 47.2365 21.6667 53.2639 32.5001 56.875ZM20.3126 18.9583L27.8274 16.8112C28.9901 16.479 29.7917 15.4163 29.7917 14.2071V10.8333H35.2084L34.01 13.2302C33.3411 14.568 33.8833 16.1948 35.2212 16.8638C35.3979 16.9522 35.5838 17.0209 35.7755 17.0688L43.3334 18.9583C49.1352 20.4088 52.7316 26.1536 51.5803 31.956L51.4584 32.5H13.5417L13.2244 31.2308C11.8912 25.8979 15.0271 20.4685 20.3126 18.9583Z" stroke="#828282" stroke-width="2" stroke-linecap="square"/>
<circle cx="32.5" cy="32.5" r="31.5" stroke="#828282" stroke-width="2"/>
<line x1="9.75041" y1="54.2927" x2="54.6769" y2="9.36624" stroke="#828282" stroke-width="2"/>
</g>
<defs>
<clipPath id="clip0_771_1822">
<rect width="65" height="65" fill="white"/>
</clipPath>
</defs>
</svg>
