<svg width="55" height="48" viewBox="0 0 55 48" fill="none" xmlns="http://www.w3.org/2000/svg">
<path fill-rule="evenodd" clipRule="evenodd" d="M16.1338 3.37245L18.0207 2.83334C24.2307 1.05904 30.7983 0.949614 37.064 2.51604L39.6024 3.15064C45.5204 4.63014 50.199 9.1554 51.8749 15.0208L52.5798 17.4882C53.8785 22.0336 53.6305 26.8816 51.8749 31.2708L51.6811 31.7551C50.2314 35.3794 46.8149 37.8126 42.9506 38.0264L42.3957 38.0417C38.0127 38.0417 33.7602 39.5334 30.3377 42.2714L28.854 43.4583C24.6856 46.7931 19.0199 47.5622 14.1134 45.4594L12.604 44.8125C6.73318 42.2964 2.63793 36.8546 1.84568 30.5166L1.39591 26.9184C0.761357 21.842 1.84689 16.6994 4.47902 12.3125C7.08931 7.96203 11.2555 4.76625 16.1338 3.37245ZM37.064 2.51604L39.6024 3.15064C45.5204 4.63014 50.199 9.1554 51.8749 15.0208L52.5798 17.4882C52.749 18.0803 52.8919 18.6776 53.0087 19.2783C52.7567 20.5944 52.3776 21.889 51.8749 23.1458L51.6811 23.6301C50.2314 27.2544 46.8149 29.6876 42.9506 29.9014L42.3957 29.9167C38.0127 29.9167 33.7602 31.4084 30.3377 34.1464L28.854 35.3333C24.6856 38.6681 19.0199 39.4372 14.1134 37.3344L12.604 36.6875C6.73318 34.1714 2.63793 28.7296 1.84568 22.3916L1.56004 20.1476C2.04016 17.3974 3.02294 14.7393 4.47902 12.3125C7.08931 7.96203 11.2555 4.76625 16.1338 3.37245L18.0207 2.83334C24.2307 1.05904 30.7983 0.949614 37.064 2.51604ZM53.0936 19.9109C50.526 14.6192 45.1611 11.2593 39.2794 11.2593H38.4009C31.5551 11.2593 24.8599 9.25029 19.145 5.48136L17.4113 4.33797C16.9278 4.01909 16.4354 3.71813 15.9351 3.43519L16.1338 3.37245L18.0207 2.83334C21.1257 1.94619 24.3201 1.47526 27.5215 1.42192L28.7221 1.42149C31.5237 1.46619 34.3227 1.83073 37.064 2.51604L39.6024 3.15064C45.5204 4.63014 50.199 9.1554 51.8749 15.0208L52.5798 17.4882C52.8233 18.3404 53.0124 19.2034 53.1475 20.0719L53.1364 19.9995C53.1222 19.9699 53.1079 19.9404 53.0936 19.9109ZM11.3461 20.8059C11.3461 23.0496 13.7712 24.8684 16.7628 24.8684C19.7543 24.8684 22.1794 23.0496 22.1794 20.8059C22.1794 18.5623 19.7543 16.7434 16.7628 16.7434C13.7712 16.7434 11.3461 18.5623 11.3461 20.8059Z" stroke="#fff" stroke-width="2" stroke-linecap="square"/>
</svg>
