<svg width="54" height="41" viewBox="0 0 54 41" fill="none" xmlns="http://www.w3.org/2000/svg">
<path fill-rule="evenodd" clipRule="evenodd" d="M15.6427 13.3982C28.2074 5.56117 44.7463 9.39366 52.5833 21.9584L51.9642 22.9058C50.4743 25.084 48.6698 27.0321 46.6078 28.6857C36.0675 37.1385 21.0962 36.3351 11.5171 27.3553C9.98131 31.3152 5.99597 33.987 1.53638 33.6635L1.125 33.625V32.9271C1.125 28.7434 2.95658 24.922 5.92434 22.3071C3.16541 20.1665 1.34844 16.8902 1.14423 13.2065L1.125 12.5112V10.2917L1.68637 10.3143C5.90368 10.5877 9.51453 13.173 11.2191 16.8503C12.5633 15.5521 14.0471 14.3935 15.6427 13.3982ZM31.0175 34.5569L31.3738 34.5395C29.3995 36.5057 26.9792 37.9991 24.2246 38.8078C22.0844 39.4362 19.9304 39.596 17.8532 39.3448C18.8675 37.2846 19.6542 35.0822 20.1877 32.7876C23.6402 34.1186 27.3343 34.7168 31.0175 34.5569ZM33.6609 9.22963L33.9413 9.65165C28.634 8.82634 23.0583 9.58349 17.9729 12.0989C16.4188 8.81525 14.3344 5.95285 11.8792 3.61375C12.9385 3.02482 14.0729 2.54382 15.2705 2.19222C22.3387 0.117038 29.5578 3.15173 33.6609 9.22963Z" stroke="#fff" stroke-width="2" stroke-linecap="round"/>
<path fill-rule="evenodd" clipRule="evenodd" d="M40.396 19.4167V19.1459V19.4167Z" stroke="#fff" stroke-width="4" stroke-linecap="round" stroke-linejoin="round"/>
</svg>
