<svg width="65" height="65" viewBox="0 0 65 65" fill="none" xmlns="http://www.w3.org/2000/svg">
<path fill-rule="evenodd" clipRule="evenodd" d="M23.823 24.5513C35.0651 17.2741 49.863 20.8328 56.8752 32.5L56.3212 33.3798C54.9882 35.4024 53.3736 37.2114 51.5286 38.7469C42.0979 46.5959 28.7024 45.8499 20.1317 37.5115C18.7576 41.1885 15.1917 43.6695 11.2016 43.3691L10.8335 43.3334V42.6852C10.8335 38.8004 12.4723 35.2519 15.1276 32.8238C12.6591 30.8361 11.0334 27.7939 10.8507 24.3733L10.8335 23.7276V21.6667L11.3358 21.6877C15.1092 21.9415 18.3399 24.3422 19.865 27.7568C21.0677 26.5514 22.3953 25.4755 23.823 24.5513ZM37.5795 44.1986L37.8982 44.1825C36.1317 46.0083 33.9662 47.395 31.5015 48.146C29.5866 48.7294 27.6594 48.8779 25.8008 48.6446C26.7084 46.7315 27.4122 44.6865 27.8896 42.5557C30.9787 43.7917 34.2839 44.3471 37.5795 44.1986ZM39.9446 20.6805L40.1954 21.0724C35.4468 20.306 30.458 21.0091 25.9079 23.3448C24.5175 20.2957 22.6524 17.6378 20.4557 15.4657C21.4035 14.9189 22.4184 14.4722 23.49 14.1458C29.8141 12.2188 36.2733 15.0367 39.9446 20.6805Z" stroke="#828282" stroke-width="2" stroke-linecap="round"/>
<path fill-rule="evenodd" clipRule="evenodd" d="M46.0415 30.0625V29.7917V30.0625Z" stroke="#828282" stroke-width="3" stroke-linecap="round" stroke-linejoin="round"/>
<circle cx="32.5" cy="32.5" r="31.5" stroke="#828282" stroke-width="2"/>
<line x1="9.7509" y1="54.2927" x2="54.6774" y2="9.36624" stroke="#828282" stroke-width="2"/>
</svg>
