<svg width="65" height="65" viewBox="0 0 65 65" fill="none" xmlns="http://www.w3.org/2000/svg">
<path d="M17.7545 24.0741L22.0821 24.7954C22.4699 24.86 22.8624 24.8925 23.2555 24.8925C27.1976 24.8925 30.3934 21.6968 30.3934 17.7547L26.1804 19.8611V13.5417L25.7599 13.552C21.3017 13.7711 17.7545 17.4551 17.7545 21.9676V24.0741ZM17.7545 24.0741V25.4212C17.7545 27.2795 18.3688 29.0857 19.5018 30.5586L21.9674 33.7639M20.9142 34.6065H18.2517C16.656 34.6065 15.1972 35.5081 14.4836 36.9354L13.5415 38.8195M19.4397 40.926H18.2517C16.656 40.926 15.1972 41.8275 14.4836 43.2548L13.5415 45.1389M25.1272 47.2454H22.4647C20.869 47.2454 19.4102 48.147 18.6965 49.5743L17.7545 51.4584M44.0855 34.6065H46.7479C48.3437 34.6065 49.8025 35.5081 50.5161 36.9354L51.4582 38.8195M45.56 40.926H46.7479C48.3437 40.926 49.8025 41.8275 50.5161 43.2548L51.4582 45.1389M39.8725 47.2454H42.535C44.1307 47.2454 45.5895 48.147 46.3032 49.5743L47.2452 51.4584M47.2452 24.0741V25.4212C47.2452 27.2795 46.6309 29.0857 45.4979 30.5586L43.0322 33.7639M47.2452 24.0741L42.9176 24.7954C42.5298 24.86 42.1373 24.8925 41.7442 24.8925C37.802 24.8925 34.6063 21.6968 34.6063 17.7547L38.8193 19.8611V13.5417L39.2398 13.552C43.698 13.7711 47.2452 17.4551 47.2452 21.9676V24.0741ZM24.6857 46.8718L26.4437 47.9037C30.1829 50.0984 34.8168 50.0984 38.556 47.9037L40.314 46.8718C43.0533 45.2639 44.9941 42.5823 45.6654 39.4777C46.2099 36.959 44.6096 34.4757 42.0909 33.9311L41.9402 33.9012L39.6092 33.5533C34.8954 32.8549 30.1043 32.8549 25.3905 33.5533L23.2111 33.8761C20.662 34.2538 18.9017 36.6264 19.2793 39.1755C19.2943 39.2768 19.3127 39.3776 19.3343 39.4777C20.0056 42.5823 21.9464 45.2639 24.6857 46.8718Z" stroke="#fff" stroke-width="2" stroke-linecap="round"/>
<circle cx="32.5" cy="32.5" r="31.5" stroke="#fff" stroke-width="2"/>
<line x1="9.7509" y1="54.2927" x2="54.6774" y2="9.36624" stroke="#fff" stroke-width="2"/>
</svg>
