<svg width="45" height="52" viewBox="0 0 45 52" fill="none" xmlns="http://www.w3.org/2000/svg">
<path d="M30.6248 6.83335L30.2078 6.97234C25.6047 8.50673 22.4998 12.8145 22.4998 17.6667V10.7859C22.4998 6.91289 19.7661 3.57827 15.9682 2.81871L8.95813 1.41669V2.88078C8.95813 6.75381 11.6919 10.0884 15.4897 10.848L22.4998 12.25M32.904 14.2777C35.7397 14.0836 38.5139 15.1665 40.4681 17.2306C42.3002 19.1657 43.3338 21.7121 43.3785 24.3618L43.3711 24.9749L43.3013 26.6853C43.1521 30.3398 42.5642 33.9615 41.5513 37.4726L41.1516 38.7839L40.1572 41.8785C38.9328 45.6892 35.8919 48.6403 32.0463 49.7501C30.4135 50.2213 28.1887 50.1198 25.3717 49.4457L24.5888 49.2476C23.2195 48.8832 21.7788 48.8832 20.4095 49.2477C17.2199 50.0967 14.7345 50.2641 12.9533 49.7501C9.10773 48.6403 6.06681 45.6892 4.84236 41.8785L3.84798 38.7839C2.5892 34.8664 1.86609 30.7967 1.69829 26.6853L1.62848 24.9749C1.51146 22.1075 2.55841 19.3145 4.53147 17.2306C6.48568 15.1665 9.25987 14.0836 12.0956 14.2777L13.7696 14.3924C16.1766 14.5572 19.0872 16.3236 22.5016 19.6915C25.6619 16.4818 28.3603 14.7359 30.5968 14.4539L31.23 14.3924L32.904 14.2777Z" stroke="#828282" stroke-width="2" stroke-linecap="round"/>
</svg>
