<svg width="53" height="53" viewBox="0 0 53 53" fill="none" xmlns="http://www.w3.org/2000/svg">
<path d="M39.7565 21.886C40.002 22.1341 40.1887 22.4236 40.3132 22.7346L43.8023 22.7184C44.812 22.7129 45.7242 22.1147 46.1315 21.1909C46.6614 19.9893 46.1936 18.6001 45.088 17.9509L44.8623 17.8354L47.4306 16.9685C48.073 16.7513 48.6031 16.288 48.9044 15.6804C49.5328 14.4135 49.0151 12.877 47.7481 12.2487L46.741 11.7473L47.4632 11.0275C48.954 9.53671 48.954 7.11967 47.4632 5.62888C45.9724 4.1381 43.5554 4.1381 42.0646 5.62888L41.3117 6.37934L40.7513 5.25186C40.45 4.64428 39.9199 4.18105 39.2774 3.96381C37.9377 3.51083 36.4844 4.22967 36.0315 5.56939L35.2371 7.9114L35.2174 7.85406C34.851 6.85759 33.9044 6.19334 32.8427 6.18761C31.4372 6.18003 30.2918 7.31323 30.2842 8.71867L30.2644 12.5795C30.5022 12.6983 30.724 12.8556 30.92 13.0495M39.7565 21.886C38.7619 20.8806 37.1406 20.8719 36.1352 21.8665L10.8211 46.909C10.1985 47.525 9.3042 47.78 8.45031 47.585M39.7565 21.886C40.5017 22.6393 40.7054 23.7729 40.2713 24.7375L42.4884 23.6418C43.756 23.0148 45.2919 23.5341 45.919 24.8018C46.2197 25.4097 46.2669 26.112 46.0503 26.7547L45.5955 28.1029L48.0604 28.1032C50.0481 28.1032 51.6595 29.7145 51.6595 31.7022C51.6595 33.6899 50.0481 35.3013 48.0604 35.3013L45.5955 35.2989L46.0503 36.6497C46.5019 37.9899 45.7816 39.4424 44.4414 39.894C43.7987 40.1105 43.0963 40.0633 42.4884 39.7626L40.0624 38.5625L40.1372 38.8008C40.46 40.0416 39.8085 41.3547 38.5842 41.8297C37.6429 42.1949 36.5749 41.9729 35.8571 41.2628L29.8309 35.3013L15.2422 49.7335C13.2467 51.7076 10.0341 51.7076 8.03863 49.7335L5.09183 46.8183L8.45031 47.585M8.45031 47.585L5.82241 46.9839L5.22093 44.3557M5.22093 44.3557C5.026 43.5018 5.281 42.6075 5.89698 41.9848M5.22093 44.3557L5.98765 47.7141L3.07247 44.7673C1.09841 42.7719 1.09841 39.5592 3.07247 37.5638L17.5047 22.9751L11.5432 16.9489C10.8331 16.2311 10.6111 15.1631 10.9763 14.2218C11.4512 12.9975 12.7643 12.346 14.0051 12.6687L14.2435 12.7435L13.0434 10.3176C12.7427 9.70967 12.6954 9.00731 12.912 8.36461C13.3636 7.02441 14.8161 6.30404 16.1563 6.75562L17.507 7.21042L17.5047 4.74553C17.5047 2.75782 19.116 1.14646 21.1037 1.14646C23.0915 1.14646 24.7028 2.75782 24.7028 4.74553L24.7031 7.21042L26.0512 6.75562C26.6939 6.53906 27.3963 6.58631 28.0042 6.887C29.2718 7.51402 29.7911 9.04994 29.1641 10.3176L28.0685 12.5346C29.0331 12.1006 30.1667 12.3043 30.92 13.0495M5.89698 41.9848L23.5139 24.1752L30.2368 17.4543L30.2359 17.3805L30.9395 16.6708M5.89698 41.9848L30.9395 16.6708M30.9395 16.6708C31.9341 15.6654 31.9253 14.0441 30.92 13.0495M40.4984 12.5016L37.9259 15.0741M21.1037 12.0608L21.1037 15.6989M14.7586 27.5363L25.5558 38.3335M40.7452 31.7022L37.1071 31.7022" stroke="#828282" stroke-width="2" stroke-linecap="round"/>
</svg>
