<svg width="19" height="23" viewBox="0 0 19 23" fill="none" xmlns="http://www.w3.org/2000/svg">
<path fill-rule="evenodd" clipRule="evenodd" d="M3.79282 2.57046C3.4942 2.57046 3.20782 2.68908 2.99667 2.90023C2.78552 3.11138 2.66689 3.39777 2.66689 3.69638V19.5233L8.76802 15.1654C9.1595 14.8857 9.6854 14.8857 10.0769 15.1654L16.178 19.5233V3.69638C16.178 3.39777 16.0594 3.11138 15.8482 2.90023C15.6371 2.68908 15.3507 2.57046 15.0521 2.57046H3.79282ZM1.40437 1.30793C2.03782 0.674475 2.89697 0.318604 3.79282 0.318604H15.0521C15.9479 0.318604 16.8071 0.674476 17.4405 1.30793C18.074 1.94139 18.4299 2.80054 18.4299 3.69638V21.7112C18.4299 22.133 18.1941 22.5193 17.8191 22.7123C17.4441 22.9053 16.9927 22.8725 16.6495 22.6274L9.42245 17.4652L2.1954 22.6274C1.8522 22.8725 1.40078 22.9053 1.02576 22.7123C0.650749 22.5193 0.415039 22.133 0.415039 21.7112V3.69638C0.415039 2.80054 0.770911 1.94139 1.40437 1.30793Z" fill="#BDBDBD"/>
</svg>
