<svg width="18" height="22" viewBox="0 0 18 22" fill="none" xmlns="http://www.w3.org/2000/svg">
<path fill-rule="evenodd" clipRule="evenodd" d="M13.5779 2.15468C10.5526 1.6475 7.44679 1.6475 4.42149 2.15468C3.85215 2.25013 3.39996 2.68754 3.28647 3.25097C2.25388 8.37728 2.19754 13.6524 3.12041 18.7996L3.31121 19.8638L7.5935 15.7956C8.38151 15.047 9.61788 15.047 10.4059 15.7956L14.6882 19.8638L14.879 18.7996C15.8018 13.6524 15.7455 8.37728 14.7129 3.25097C14.5994 2.68754 14.1472 2.25013 13.5779 2.15468ZM4.13214 0.428766C7.34901 -0.110533 10.6504 -0.110533 13.8672 0.428766C15.1497 0.643759 16.1712 1.62821 16.4285 2.90541C17.5045 8.24747 17.5632 13.7446 16.6015 19.1084L16.3431 20.5496C16.1262 21.7593 14.6515 22.2427 13.7605 21.3963L9.20058 17.0644C9.088 16.9574 8.91138 16.9574 8.79881 17.0644L4.23885 21.3963C3.34787 22.2427 1.87316 21.7593 1.65627 20.5496L1.39787 19.1084C0.436169 13.7446 0.494882 8.24747 1.57093 2.90541C1.8282 1.62821 2.84972 0.643759 4.13214 0.428766Z" fill="currentColor"/>
</svg>
