<svg width="19" height="19" viewBox="0 0 19 19" fill="none" xmlns="http://www.w3.org/2000/svg">
<path fill-rule="evenodd" clipRule="evenodd" d="M9.50016 1.98088C5.35803 1.98088 2.00016 5.33874 2.00016 9.48088C2.00016 13.623 5.35803 16.9809 9.50016 16.9809C13.6423 16.9809 17.0002 13.623 17.0002 9.48088C17.0002 5.33874 13.6423 1.98088 9.50016 1.98088ZM0.333496 9.48088C0.333496 4.41826 4.43755 0.314209 9.50016 0.314209C14.5628 0.314209 18.6668 4.41826 18.6668 9.48088C18.6668 14.5435 14.5628 18.6475 9.50016 18.6475C4.43755 18.6475 0.333496 14.5435 0.333496 9.48088ZM9.50016 3.64754C9.9604 3.64754 10.3335 4.02064 10.3335 4.48088V8.96585L13.2062 10.4022C13.6178 10.608 13.7847 11.1086 13.5789 11.5202C13.373 11.9319 12.8725 12.0987 12.4608 11.8929L9.12748 10.2262C8.84516 10.0851 8.66683 9.79652 8.66683 9.48088V4.48088C8.66683 4.02064 9.03992 3.64754 9.50016 3.64754Z" fill="#BDBDBD"/>
</svg>
