<svg width="18" height="17" viewBox="0 0 18 17" fill="none" xmlns="http://www.w3.org/2000/svg">
<path fill-rule="evenodd" clipRule="evenodd" d="M13.9999 2.23222C13.752 2.23222 13.5143 2.33067 13.3391 2.50591L3.08566 12.7594L2.64516 14.5213L4.40715 14.0808L14.6606 3.8274C14.7474 3.74063 14.8162 3.63761 14.8632 3.52424C14.9101 3.41087 14.9343 3.28936 14.9343 3.16665C14.9343 3.04394 14.9101 2.92243 14.8632 2.80906C14.8162 2.69569 14.7474 2.59268 14.6606 2.50591C14.5738 2.41914 14.4708 2.35031 14.3574 2.30335C14.2441 2.25639 14.1226 2.23222 13.9999 2.23222ZM12.1606 1.3274C12.6484 0.839595 13.31 0.565552 13.9999 0.565552C14.3414 0.565552 14.6797 0.632831 14.9953 0.763549C15.3108 0.894266 15.5976 1.08586 15.8391 1.3274C16.0806 1.56893 16.2722 1.85567 16.403 2.17125C16.5337 2.48683 16.601 2.82507 16.601 3.16665C16.601 3.50823 16.5337 3.84647 16.403 4.16205C16.2722 4.47763 16.0806 4.76437 15.8391 5.00591L5.42244 15.4226C5.31564 15.5294 5.18183 15.6051 5.0353 15.6418L1.70197 16.4751C1.41799 16.5461 1.11758 16.4629 0.910599 16.2559C0.703616 16.0489 0.620408 15.7485 0.691403 15.4645L1.52474 12.1312C1.56137 11.9847 1.63713 11.8509 1.74393 11.7441L12.1606 1.3274ZM8.16652 15.6667C8.16652 15.2064 8.53962 14.8333 8.99985 14.8333H16.4999C16.9601 14.8333 17.3332 15.2064 17.3332 15.6667C17.3332 16.1269 16.9601 16.5 16.4999 16.5H8.99985C8.53962 16.5 8.16652 16.1269 8.16652 15.6667Z" fill="#2D9CDB"/>
</svg>
