<svg width="40" height="40" viewBox="0 0 40 40" fill="none" xmlns="http://www.w3.org/2000/svg">
<path d="M0 0.999999C0 0.447714 0.447715 0 1 0H39C39.5523 0 40 0.447715 40 1V39C40 39.5523 39.5523 40 39 40H0.999999C0.447714 40 0 39.5523 0 39V0.999999Z" fill="white"/>
<path fill-rule="evenodd" clipRule="evenodd" d="M28.64 20.2046C28.64 19.5664 28.5827 18.9527 28.4764 18.3636H20V21.845H24.8436C24.635 22.97 24.0009 23.9232 23.0477 24.5614V26.8196H25.9564C27.6582 25.2527 28.64 22.9455 28.64 20.2046Z" fill="#4285F4"/>
<path fill-rule="evenodd" clipRule="evenodd" d="M20 29C22.43 29 24.4673 28.1941 25.9564 26.8195L23.0477 24.5614C22.2418 25.1014 21.2109 25.4204 20 25.4204C17.6559 25.4204 15.6718 23.8373 14.9641 21.71H11.9573V24.0418C13.4382 26.9832 16.4818 29 20 29Z" fill="#34A853"/>
<path fill-rule="evenodd" clipRule="evenodd" d="M14.9641 21.71C14.7841 21.17 14.6818 20.5932 14.6818 20C14.6818 19.4068 14.7841 18.83 14.9641 18.29V15.9582H11.9573C11.3477 17.1732 11 18.5477 11 20C11 21.4523 11.3477 22.8268 11.9573 24.0418L14.9641 21.71Z" fill="#FBBC05"/>
<path fill-rule="evenodd" clipRule="evenodd" d="M20 14.5795C21.3214 14.5795 22.5077 15.0336 23.4405 15.9255L26.0218 13.3441C24.4632 11.8918 22.4259 11 20 11C16.4818 11 13.4382 13.0168 11.9573 15.9582L14.9641 18.29C15.6718 16.1627 17.6559 14.5795 20 14.5795Z" fill="#EA4335"/>
</svg>
