<svg width="17" height="19" viewBox="0 0 17 19" fill="none" xmlns="http://www.w3.org/2000/svg">
<path fill-rule="evenodd" clipRule="evenodd" d="M7.98822 0.489749C8.28915 0.255696 8.71053 0.255696 9.01145 0.489749L16.5115 6.32308C16.7144 6.48096 16.8332 6.72372 16.8332 6.98088V16.1475C16.8332 16.8106 16.5698 17.4465 16.1009 17.9153C15.6321 18.3841 14.9962 18.6475 14.3332 18.6475H2.6665C2.00346 18.6475 1.36758 18.3841 0.898737 17.9153C0.429896 17.4465 0.166504 16.8106 0.166504 16.1475V6.98088C0.166504 6.72372 0.285231 6.48096 0.48822 6.32308L7.98822 0.489749ZM6.83317 16.9809H10.1665V10.3142H6.83317V16.9809ZM11.8332 16.9809V9.48088C11.8332 9.02064 11.4601 8.64754 10.9998 8.64754H5.99984C5.5396 8.64754 5.1665 9.02064 5.1665 9.48088V16.9809H2.6665C2.44549 16.9809 2.23353 16.8931 2.07725 16.7368C1.92097 16.5805 1.83317 16.3686 1.83317 16.1475V7.38845L8.49984 2.20326L15.1665 7.38845V16.1475C15.1665 16.3686 15.0787 16.5805 14.9224 16.7368C14.7661 16.8931 14.5542 16.9809 14.3332 16.9809H11.8332Z" fill="#BDBDBD"/>
</svg>
