<svg width="18" height="18" viewBox="0 0 18 18" fill="none" xmlns="http://www.w3.org/2000/svg">
<path fill-rule="evenodd" clipRule="evenodd" d="M5.25 2.25C3.59315 2.25 2.25 3.59315 2.25 5.25V12.75C2.25 14.4069 3.59315 15.75 5.25 15.75H12.75C14.4069 15.75 15.75 14.4069 15.75 12.75V5.25C15.75 3.59315 14.4069 2.25 12.75 2.25H5.25ZM0.75 5.25C0.75 2.76472 2.76472 0.75 5.25 0.75H12.75C15.2353 0.75 17.25 2.76472 17.25 5.25V12.75C17.25 15.2353 15.2353 17.25 12.75 17.25H5.25C2.76472 17.25 0.75 15.2353 0.75 12.75V5.25ZM12.375 4.875C12.375 4.46079 12.7108 4.125 13.125 4.125H13.1325C13.5467 4.125 13.8825 4.46079 13.8825 4.875C13.8825 5.28921 13.5467 5.625 13.1325 5.625H13.125C12.7108 5.625 12.375 5.28921 12.375 4.875ZM9.36249 6.74189C8.89435 6.67247 8.41624 6.75243 7.99617 6.9704C7.57609 7.18837 7.23544 7.53324 7.02267 7.95597C6.8099 8.3787 6.73584 8.85776 6.81103 9.32501C6.88621 9.79225 7.10682 10.2239 7.44146 10.5585C7.7761 10.8932 8.20775 11.1138 8.67499 11.189C9.14224 11.2642 9.6213 11.1901 10.044 10.9773C10.4668 10.7646 10.8116 10.4239 11.0296 10.0038C11.2476 9.58376 11.3275 9.10565 11.2581 8.63751C11.1873 8.15999 10.9648 7.71791 10.6234 7.37656C10.2821 7.03521 9.84001 6.8127 9.36249 6.74189ZM7.30531 5.63896C8.00543 5.27568 8.80228 5.14241 9.58251 5.25811C10.3784 5.37613 11.1152 5.74698 11.6841 6.3159C12.253 6.88482 12.6239 7.62162 12.7419 8.41749C12.8576 9.19772 12.7243 9.99457 12.361 10.6947C11.9978 11.3948 11.423 11.9626 10.7184 12.3172C10.0139 12.6718 9.21543 12.7952 8.43669 12.6699C7.65794 12.5446 6.93854 12.1769 6.3808 11.6192C5.82306 11.0615 5.45539 10.3421 5.33008 9.56331C5.20477 8.78457 5.3282 7.98614 5.68282 7.28159C6.03744 6.57704 6.60519 6.00224 7.30531 5.63896Z" fill="#828282"/>
</svg>
