<svg width="24" height="18" viewBox="0 0 24 18" fill="none" xmlns="http://www.w3.org/2000/svg">
<path fill-rule="evenodd" clipRule="evenodd" d="M0.333008 2.00004C0.333008 1.35571 0.855342 0.833374 1.49967 0.833374H22.4997C23.144 0.833374 23.6663 1.35571 23.6663 2.00004C23.6663 2.64437 23.144 3.16671 22.4997 3.16671H1.49967C0.855342 3.16671 0.333008 2.64437 0.333008 2.00004ZM0.333008 9.00004C0.333008 8.35571 0.855342 7.83337 1.49967 7.83337H22.4997C23.144 7.83337 23.6663 8.35571 23.6663 9.00004C23.6663 9.64437 23.144 10.1667 22.4997 10.1667H1.49967C0.855342 10.1667 0.333008 9.64437 0.333008 9.00004ZM0.333008 16C0.333008 15.3557 0.855342 14.8334 1.49967 14.8334H22.4997C23.144 14.8334 23.6663 15.3557 23.6663 16C23.6663 16.6444 23.144 17.1667 22.4997 17.1667H1.49967C0.855342 17.1667 0.333008 16.6444 0.333008 16Z" fill="#F2F2F2"/>
</svg>
