<svg width="20" height="24" viewBox="0 0 20 24" fill="none" xmlns="http://www.w3.org/2000/svg">
<path d="M10 0C12.6522 0 15.1957 1.05357 17.0711 2.92893C18.9464 4.8043 20 7.34784 20 10C19.9579 11.9205 19.4324 13.7994 18.472 15.463C17.5812 17.0463 16.4902 18.5083 15.226 19.813C13.8094 21.3077 12.2443 22.6543 10.555 23.832C10.3908 23.9414 10.1978 23.9998 10.0005 23.9998C9.80316 23.9998 9.61023 23.9414 9.446 23.832C7.75665 22.6543 6.19158 21.3077 4.775 19.813C3.51076 18.5083 2.41979 17.0463 1.529 15.463C0.568272 13.7995 0.0424032 11.9206 0 10C0 7.34784 1.05357 4.8043 2.92893 2.92893C4.8043 1.05357 7.34784 0 10 0ZM10 21.771C11.9 20.364 18 15.414 18 10C18.0001 8.41771 17.5309 6.87093 16.6518 5.55529C15.7728 4.23964 14.5234 3.21421 13.0615 2.60869C11.5997 2.00316 9.99108 1.84474 8.4392 2.15344C6.88731 2.46215 5.46182 3.22412 4.343 4.343C3.59783 5.08418 3.00706 5.9658 2.60488 6.93682C2.20271 7.90784 1.99711 8.94899 2 10C2 15.413 8.1 20.363 10 21.771Z" fill="white"/>
<path d="M10 14C9.20887 14 8.43552 13.7654 7.77772 13.3259C7.11992 12.8864 6.60723 12.2616 6.30448 11.5307C6.00173 10.7998 5.92252 9.99556 6.07686 9.21964C6.2312 8.44372 6.61216 7.73098 7.17157 7.17157C7.73098 6.61216 8.44372 6.2312 9.21964 6.07686C9.99556 5.92252 10.7998 6.00173 11.5307 6.30448C12.2616 6.60723 12.8864 7.11992 13.3259 7.77772C13.7654 8.43552 14 9.20888 14 10C14 11.0609 13.5786 12.0783 12.8284 12.8284C12.0783 13.5786 11.0609 14 10 14ZM10 8C9.60444 8 9.21776 8.1173 8.88886 8.33706C8.55996 8.55683 8.30362 8.86918 8.15224 9.23464C8.00087 9.60009 7.96126 10.0022 8.03843 10.3902C8.1156 10.7781 8.30608 11.1345 8.58579 11.4142C8.86549 11.6939 9.22186 11.8844 9.60982 11.9616C9.99778 12.0387 10.3999 11.9991 10.7654 11.8478C11.1308 11.6964 11.4432 11.44 11.6629 11.1111C11.8827 10.7822 12 10.3956 12 10C12 9.46957 11.7893 8.96086 11.4142 8.58579C11.0391 8.21072 10.5304 8 10 8Z" fill="white"/>
</svg>
