<svg width="20" height="16" viewBox="0 0 20 16" fill="none" xmlns="http://www.w3.org/2000/svg">
<path fill-rule="evenodd" clipRule="evenodd" d="M2.58898 2.62829L10.0002 7.81612L17.4113 2.62829C17.2735 2.35577 16.9901 2.16667 16.6668 2.16667H3.3335C3.01019 2.16667 2.72679 2.35577 2.58898 2.62829ZM17.5002 4.60055L10.478 9.51603C10.1911 9.71688 9.80921 9.71688 9.52228 9.51603L2.50016 4.60055V13C2.50016 13.4564 2.87707 13.8333 3.3335 13.8333H16.6668C17.1233 13.8333 17.5002 13.4564 17.5002 13V4.60055ZM0.833496 3C0.833496 1.6231 1.95659 0.5 3.3335 0.5H16.6668C18.0437 0.5 19.1668 1.6231 19.1668 3V13C19.1668 14.3769 18.0437 15.5 16.6668 15.5H3.3335C1.95659 15.5 0.833496 14.3769 0.833496 13V3Z" fill="#BDBDBD"/>
</svg>
