<svg width="19" height="17" viewBox="0 0 19 17" fill="none" xmlns="http://www.w3.org/2000/svg">
<path fill-rule="evenodd" clipRule="evenodd" d="M0.333496 0.862386C0.333496 0.402149 0.706592 0.0290527 1.16683 0.0290527H6.16683C7.2719 0.0290527 8.33171 0.468039 9.11311 1.24944C9.25334 1.38967 9.38254 1.53887 9.50016 1.69569C9.61778 1.53887 9.74698 1.38967 9.88722 1.24944C10.6686 0.468039 11.7284 0.0290527 12.8335 0.0290527H17.8335C18.2937 0.0290527 18.6668 0.402149 18.6668 0.862386V13.3624C18.6668 13.8226 18.2937 14.1957 17.8335 14.1957H12.0002C11.5581 14.1957 11.1342 14.3713 10.8216 14.6839C10.5091 14.9964 10.3335 15.4204 10.3335 15.8624C10.3335 16.3226 9.9604 16.6957 9.50016 16.6957C9.03992 16.6957 8.66683 16.3226 8.66683 15.8624C8.66683 15.4204 8.49123 14.9964 8.17867 14.6839C7.86611 14.3713 7.44219 14.1957 7.00016 14.1957H1.16683C0.706592 14.1957 0.333496 13.8226 0.333496 13.3624V0.862386ZM8.66683 12.9756C8.16441 12.6856 7.59035 12.5291 7.00016 12.5291H2.00016V1.69572H6.16683C6.82987 1.69572 7.46575 1.95911 7.9346 2.42795C8.40344 2.89679 8.66683 3.53268 8.66683 4.19572V12.9756ZM10.3335 12.9756C10.8359 12.6856 11.41 12.5291 12.0002 12.5291H17.0002V1.69572H12.8335C12.1705 1.69572 11.5346 1.95911 11.0657 2.42795C10.5969 2.89679 10.3335 3.53268 10.3335 4.19572V12.9756Z" fill="#BDBDBD"/>
</svg>
