<svg width="20" height="20" viewBox="0 0 20 20" fill="none" xmlns="http://www.w3.org/2000/svg">
<path d="M5.82389 0.833242H3.33193C2.98384 0.833772 2.64074 0.906373 2.32337 1.04656C2.00592 1.18677 1.72111 1.39158 1.48711 1.64793C1.25312 1.90424 1.07506 2.20649 0.96427 2.53542C0.853486 2.86437 0.812405 3.21274 0.843642 3.5584C1.13228 6.27739 2.05301 8.87763 3.53252 11.1615C4.87365 13.272 6.66827 15.0667 8.78499 16.4118C11.0521 17.8819 13.6397 18.8025 16.3336 19.0952C16.6955 19.128 17.0448 19.0866 17.3745 18.9751C17.7042 18.8637 18.007 18.6845 18.2636 18.4491C18.5201 18.2138 18.7247 17.9274 18.8642 17.6084C19.0037 17.2894 19.075 16.9449 19.0736 16.5968L19.0736 14.1001C19.0886 13.5077 18.8779 12.9105 18.4814 12.4426C18.0851 11.9748 17.5305 11.6689 16.9233 11.5833C16.1783 11.485 15.454 11.3045 14.7566 11.0443C14.3112 10.8768 13.8248 10.8404 13.3573 10.9402L13.1839 10.9837C12.7841 11.0993 12.4184 11.3134 12.121 11.6076L11.521 12.2075L11.4212 12.1447C9.95978 11.1937 8.71334 9.94723 7.76228 8.48576L7.69933 8.38582L8.29618 7.78933C8.63555 7.44616 8.86717 7.01707 8.96686 6.54961C9.06656 6.08216 9.03016 5.59592 8.86197 5.1485C8.60253 4.45323 8.42208 3.72886 8.32477 2.99109C8.23882 2.38275 7.9384 1.83342 7.47843 1.43785C7.01853 1.04233 6.43049 0.827508 5.82389 0.833242ZM3.33301 2.49991H5.83996C6.04228 2.498 6.23837 2.56963 6.3917 2.7015C6.54502 2.83335 6.64516 3.01646 6.67346 3.21669C6.78616 4.07141 6.99709 4.91814 7.30118 5.73307C7.35795 5.88409 7.37008 6.04616 7.33685 6.20198C7.30362 6.35781 7.22642 6.50083 7.11439 6.61412L6.05934 7.66914C5.79408 7.9344 5.73875 8.34421 5.92418 8.67031C7.18464 10.887 9.01999 12.7224 11.2367 13.9828C11.5628 14.1683 11.9726 14.1129 12.2379 13.8477L13.2962 12.7893C13.4062 12.6805 13.5492 12.6034 13.7049 12.5702C13.8609 12.5369 14.0229 12.549 14.1719 12.6051C14.9891 12.91 15.8358 13.1209 16.698 13.2346C16.8929 13.2621 17.0777 13.3641 17.2099 13.52C17.3421 13.676 17.4123 13.8751 17.4072 14.0794L17.4069 16.6001C17.4075 16.7195 17.3836 16.8343 17.3372 16.9406C17.2906 17.047 17.2225 17.1425 17.1371 17.2208C17.0514 17.2994 16.9505 17.3591 16.8407 17.3962C16.7307 17.4334 16.6142 17.4472 16.4984 17.4368C14.0789 17.1737 11.7402 16.3417 9.68534 15.0092C7.76866 13.7912 6.14911 12.1717 4.93526 10.2615C3.59414 8.19118 2.76199 5.84107 2.50227 3.39539C2.49313 3.29318 2.50683 3.17705 2.54376 3.06739C2.58068 2.95777 2.64003 2.85702 2.71802 2.7716C2.79604 2.68613 2.89097 2.61786 2.99678 2.57113C3.10265 2.52436 3.21714 2.50014 3.33301 2.49991Z" fill="#BDBDBD"/>
</svg>
