<svg width="18" height="18" viewBox="0 0 18 18" fill="none" xmlns="http://www.w3.org/2000/svg">
<path fill-rule="evenodd" clipRule="evenodd" d="M8.16675 2.33334C4.94509 2.33334 2.33341 4.94501 2.33341 8.16667C2.33341 11.3883 4.94509 14 8.16675 14C9.73837 14 11.1648 13.3785 12.2137 12.3678C12.2357 12.3393 12.2597 12.3119 12.2858 12.2857C12.312 12.2596 12.3394 12.2356 12.3679 12.2137C13.3786 11.1648 14.0001 9.73829 14.0001 8.16667C14.0001 4.94501 11.3884 2.33334 8.16675 2.33334ZM14.0267 12.8481C15.053 11.565 15.6667 9.93752 15.6667 8.16667C15.6667 4.02454 12.3089 0.666672 8.16675 0.666672C4.02461 0.666672 0.666748 4.02454 0.666748 8.16667C0.666748 12.3088 4.02461 15.6667 8.16675 15.6667C9.93759 15.6667 11.5651 15.0529 12.8482 14.0266L15.9108 17.0893C16.2363 17.4147 16.7639 17.4147 17.0893 17.0893C17.4148 16.7638 17.4148 16.2362 17.0893 15.9107L14.0267 12.8481Z" fill="#828282"/>
</svg>
