<svg width="16" height="16" viewBox="0 0 16 16" fill="none" xmlns="http://www.w3.org/2000/svg">
<path fill-rule="evenodd" clipRule="evenodd" d="M6.72445 1.06259C6.83145 0.821843 7.0702 0.666687 7.33366 0.666687C8.0409 0.666687 8.71918 0.947639 9.21928 1.44774C9.71937 1.94783 10.0003 2.62611 10.0003 3.33335V5.33335H13.1036C13.3921 5.33068 13.6778 5.39047 13.941 5.50861C14.2055 5.62733 14.4411 5.80213 14.6313 6.02091C14.8215 6.23969 14.9619 6.49722 15.0428 6.77565C15.1236 7.05408 15.143 7.34675 15.0994 7.6334L14.1795 13.6333C14.1794 13.6335 14.1795 13.6331 14.1795 13.6333C14.107 14.11 13.8648 14.545 13.4974 14.8573C13.1309 15.1688 12.6644 15.3378 12.1835 15.3334H2.66699C2.13656 15.3334 1.62785 15.1226 1.25278 14.7476C0.877706 14.3725 0.666992 13.8638 0.666992 13.3334V8.66669C0.666992 8.13625 0.877706 7.62755 1.25278 7.25247C1.62785 6.8774 2.13656 6.66669 2.66699 6.66669H4.23374L6.72445 1.06259ZM4.00033 8.00002H2.66699C2.49018 8.00002 2.32061 8.07026 2.19559 8.19528C2.07056 8.32031 2.00033 8.48988 2.00033 8.66669V13.3334C2.00033 13.5102 2.07056 13.6797 2.19559 13.8048C2.32061 13.9298 2.49018 14 2.66699 14H4.00033V8.00002ZM5.33366 14H12.1945C12.3553 14.0018 12.5113 13.9455 12.6338 13.8414C12.7563 13.7373 12.8371 13.5924 12.8612 13.4334L13.7812 7.43331C13.7812 7.43322 13.7812 7.4334 13.7812 7.43331C13.7957 7.33785 13.7892 7.24012 13.7623 7.14739C13.7354 7.05458 13.6886 6.96874 13.6252 6.89582C13.5617 6.82289 13.4832 6.76462 13.3951 6.72505C13.3069 6.68548 13.2112 6.66555 13.1145 6.66664L13.107 6.66673L9.33366 6.66669C8.96547 6.66669 8.66699 6.36821 8.66699 6.00002V3.33335C8.66699 2.97973 8.52652 2.64059 8.27647 2.39054C8.12457 2.23865 7.9398 2.12719 7.73888 2.06309L5.33366 7.47483V14Z" fill="#8B8B8B"/>
</svg>
