<svg width="16" height="16" viewBox="0 0 16 16" fill="none" xmlns="http://www.w3.org/2000/svg">
<path fill-rule="evenodd" clipRule="evenodd" d="M13.7091 2.21043C13.5467 2.07104 13.3388 1.99613 13.1248 1.99991L13.113 2.00002H11.9997V8.00002H13.113L13.1248 8.00012C13.3388 8.00391 13.5467 7.92899 13.7091 7.78961C13.8617 7.65862 13.9641 7.47925 13.9997 7.28211V2.71793C13.9641 2.52078 13.8617 2.34142 13.7091 2.21043ZM10.6664 8.52521V2.00002H3.80549C3.64472 1.9982 3.4887 2.05451 3.36619 2.15864C3.24368 2.26277 3.16293 2.40767 3.13883 2.56664L2.21881 8.56673C2.21879 8.56685 2.21883 8.5666 2.21881 8.56673C2.20438 8.66215 2.21079 8.75996 2.2377 8.85264C2.26464 8.94545 2.31145 9.0313 2.37486 9.10422C2.43827 9.17715 2.51679 9.23542 2.60495 9.27499C2.69312 9.31456 2.78884 9.33449 2.88548 9.33339L2.89303 9.33331L6.66636 9.33335C7.03455 9.33335 7.33303 9.63183 7.33303 10V12.6667C7.33303 13.0203 7.4735 13.3594 7.72355 13.6095C7.87545 13.7614 8.06022 13.8729 8.26114 13.937L10.6664 8.52521ZM11.7663 9.33335L9.27557 14.9374C9.16857 15.1782 8.92982 15.3334 8.66636 15.3334C7.95912 15.3334 7.28084 15.0524 6.78074 14.5523C6.28065 14.0522 5.99969 13.3739 5.99969 12.6667V10.6667H2.89644C2.60794 10.6694 2.32225 10.6096 2.05901 10.4914C1.7945 10.3727 1.55896 10.1979 1.36872 9.97913C1.17847 9.76035 1.03807 9.50282 0.957238 9.22439C0.876403 8.94596 0.85707 8.65329 0.900577 8.36664L1.82056 2.36673C1.82059 2.36653 1.82053 2.36693 1.82056 2.36673C1.893 1.89006 2.13529 1.45499 2.50266 1.14272C2.86913 0.831217 3.33555 0.662244 3.81642 0.666684H13.1077C13.646 0.658728 14.1688 0.847902 14.5775 1.1987C14.9878 1.55089 15.2545 2.04147 15.327 2.57732C15.331 2.60694 15.333 2.6368 15.333 2.66668V7.33335C15.333 7.36324 15.331 7.39309 15.327 7.42271C15.2545 7.95856 14.9878 8.44914 14.5775 8.80134C14.1688 9.15213 13.646 9.34131 13.1077 9.33335H11.7663Z" fill="#8B8B8B"/>
</svg>
